<svg width="1024" height="1024" viewBox="0 0 1024 1024" xmlns="http://www.w3.org/2000/svg">
  <!-- Foreground for Android adaptive icon: tooth centered with padding (Android crops outer ~33%) -->
  <g transform="translate(512 540) scale(0.66)">
    <path fill="#FFFFFF" d="
      M -210 -250
      C -290 -250 -325 -180 -310 -90
      L -278 100
      C -260 220 -228 320 -185 350
      C -140 380 -108 350 -98 280
      L -78 145
      C -72 112 -50 95 -28 95
      C -8 95 6 112 10 145
      L 14 200
      C 14 215 24 215 24 200
      L 28 145
      C 32 112 46 95 66 95
      C 88 95 110 112 116 145
      L 136 280
      C 146 350 178 380 223 350
      C 266 320 298 220 316 100
      L 348 -90
      C 363 -180 328 -250 248 -250
      C 178 -250 130 -218 78 -218
      L -50 -218
      C -110 -218 -150 -250 -210 -250
      Z
    "/>
    <path fill="#FFFFFF" opacity="0.55" d="
      M -195 -195
      C -240 -180 -260 -135 -245 -75
      C -235 -30 -220 0 -200 -10
      C -180 -20 -178 -80 -188 -130
      C -195 -170 -180 -200 -195 -195 Z
    "/>
  </g>
</svg>
