<svg width="1242" height="2436" viewBox="0 0 1242 2436" xmlns="http://www.w3.org/2000/svg">
  <defs>
    <linearGradient id="bg" x1="0%" y1="0%" x2="0%" y2="100%">
      <stop offset="0%" stop-color="#F4FBFD"/>
      <stop offset="100%" stop-color="#E5F3F8"/>
    </linearGradient>
  </defs>
  <rect width="1242" height="2436" fill="url(#bg)"/>

  <!-- Logo block centered -->
  <g transform="translate(621 1100)">
    <!-- Soft circle behind logo -->
    <circle cx="0" cy="0" r="240" fill="#1F8FB8" opacity="0.08"/>
    <circle cx="0" cy="0" r="180" fill="#1F8FB8"/>

    <!-- Tooth -->
    <g transform="scale(0.42) translate(0 10)" fill="#FFFFFF">
      <path d="
        M -210 -250
        C -290 -250 -325 -180 -310 -90
        L -278 100
        C -260 220 -228 320 -185 350
        C -140 380 -108 350 -98 280
        L -78 145
        C -72 112 -50 95 -28 95
        C -8 95 6 112 10 145
        L 14 200
        C 14 215 24 215 24 200
        L 28 145
        C 32 112 46 95 66 95
        C 88 95 110 112 116 145
        L 136 280
        C 146 350 178 380 223 350
        C 266 320 298 220 316 100
        L 348 -90
        C 363 -180 328 -250 248 -250
        C 178 -250 130 -218 78 -218
        L -50 -218
        C -110 -218 -150 -250 -210 -250
        Z
      "/>
    </g>
  </g>

  <!-- App name -->
  <text x="621" y="1430" text-anchor="middle"
        font-family="-apple-system, BlinkMacSystemFont, 'Segoe UI', Roboto, sans-serif"
        font-size="64" font-weight="700" fill="#0F2A3A">Мои пациенты</text>
</svg>
